#!OML:ASF F:\VICON\USERDATA\INSTALL\rory3\rory3.ASF
:FULLY-SPECIFIED
:DEGREES
411
root 0.367137 17.2505 4.97664 -4.27402 -69.3981 6.08819
lowerback 5.02071 0.214234 -2.07546
upperback 0.320263 0.201733 1.62722
thorax -2.49917 0.128089 2.8286
lowerneck -16.3103 -6.11379 -14.7258
upperneck -22.1187 -5.91263 12.0597
head -3.27936 -2.687 6.19489
rclavicle 1.24737e-014 -8.74653e-015
rhumerus 48.9108 -10.1515 -22.3762
rradius 56.1987
rwrist 2.40895
rhand -35.3694 2.33353
rfingers 7.12502
rthumb -8.50127 -27.4753
lclavicle 1.24737e-014 -8.74653e-015
lhumerus 69.2812 19.3496 26.2399
lradius 34.7322
lwrist -16.1513
lhand -17.7978 21.3385
lfingers 7.12502
lthumb 8.4655 51.1488
rfemur -21.2281 9.57251 5.80201
rtibia 38.8484
rfoot -16.2819 -0.801118
rtoes -3.43359
lfemur -6.92558 -9.91031 -12.1377
ltibia 30.0885
lfoot -19.0204 0.815678
ltoes -27.7851
412
root 0.344483 17.2697 4.92308 -3.40006 -69.5689 5.37818
lowerback 4.84354 0.344031 -1.61025
upperback 0.238276 0.404854 1.70249
thorax -2.49462 0.225273 2.62985
lowerneck -16.2116 -6.27894 -15.1119
upperneck -22.5433 -6.04588 12.5128
head -3.37108 -2.74237 6.42101
rclavicle 2.41026e-014 7.15625e-015
rhumerus 49.8704 -10.733 -23.9977
rradius 56.0717
rwrist 2.70553
rhand -35.8369 2.07459
rfingers 7.12502
rthumb -8.95242 -27.7155
lclavicle 2.41026e-014 7.15625e-015
lhumerus 69.3116 19.8942 26.8727
lradius 35.3934
lwrist -14.7198
lhand -17.4517 21.7308
lfingers 7.12502
lthumb 8.79942 51.5274
rfemur -21.7594 8.84773 6.35516
rtibia 39.1034
rfoot -15.8856 -0.599949
rtoes -4.27208
lfemur -7.20589 -10.1175 -11.6519
ltibia 30.2861
lfoot -18.5506 1.04006
ltoes -28.1767
413
root 0.322547 17.2917 4.86465 -3.23881 -69.669 5.191
lowerback 4.94201 0.51558 -1.4763
upperback 0.172052 0.642247 1.77657
thorax -2.63121 0.344513 2.61363
lowerneck -16.3428 -6.45046 -15.3365
upperneck -22.6348 -6.19079 12.7989
head -3.3389 -2.80301 6.54445
rclavicle -3.27498e-014 -1.66979e-014
rhumerus 50.5176 -11.2014 -25.0149
rradius 56.2582
rwrist 2.50024
rhand -36.1095 2.01487
rfingers 7.12502
rthumb -9.2155 -27.7637
lclavicle -3.27498e-014 -1.66979e-014
lhumerus 69.5225 20.3006 27.4514
lradius 35.6854
lwrist -13.3164
lhand -17.4701 22.1534
lfingers 7.12502
lthumb 8.78174 51.9507
rfemur -21.845 8.38386 6.70058
rtibia 39.2209
rfoot -15.6311 -0.233567
rtoes -3.17142
lfemur -7.3296 -10.3924 -11.396
ltibia 30.5647
lfoot -18.0266 1.24137
ltoes -28.7339
414
root 0.298961 17.3112 4.80106 -3.56439 -69.6378 5.4045
lowerback 5.10492 0.705602 -1.59154
upperback 0.158044 0.8878 1.76952
thorax -2.75268 0.469899 2.65198
lowerneck -16.6782 -6.51111 -15.0706
upperneck -22.4421 -6.27237 12.6459
head -3.23859 -2.84785 6.42746
rclavicle 3.12092e-014 -1.43125e-014
rhumerus 50.6624 -11.629 -25.5009
rradius 56.8957
rwrist 1.72971
rhand -36.6669 1.46077
rfingers 7.12502
rthumb -9.75323 -28.2934
lclavicle 3.12092e-014 -1.43125e-014
lhumerus 70.2725 20.6256 28.1671
lradius 35.4397
lwrist -12.2638
lhand -17.6351 22.5163
lfingers 7.12502
lthumb 8.62245 52.3202
rfemur -21.6866 7.88021 6.91771
rtibia 39.166
rfoot -15.3473 0.023472
rtoes -3.97902
lfemur -7.41132 -10.6076 -11.2938
ltibia 30.8504
lfoot -17.3782 1.33678
ltoes -29.4959
415
root 0.274485 17.3271 4.73432 -4.28082 -69.4278 6.03024
lowerback 5.23251 0.808759 -1.96789
upperback 0.184208 1.00304 1.82092
thorax -2.81169 0.53304 2.90757
lowerneck -17.0288 -6.56021 -14.9842
upperneck -22.2949 -6.31327 12.5264
head -3.15079 -2.86171 6.35635
rclavicle -5.26779e-015 -2.22639e-014
rhumerus 50.8946 -12.0293 -26.0118
rradius 57.6698
rwrist 1.11772
rhand -37.1355 0.959631
rfingers 7.12502
rthumb -10.2054 -28.7728
lclavicle -5.26779e-015 -2.22639e-014
lhumerus 70.6955 21.0307 28.6306
lradius 35.4606
lwrist -11.1652
lhand -17.8022 22.902
lfingers 7.12502
lthumb 8.46125 52.7125
rfemur -21.4249 7.2412 6.94391
rtibia 38.9326
rfoot -15.0691 0.455395
rtoes -4.70762
lfemur -7.57084 -10.8013 -11.2861
ltibia 31.1688
lfoot -16.6615 1.03948
ltoes -29.2956
416
root 0.247872 17.3549 4.66408 -5.08098 -69.1426 6.80297
lowerback 5.30814 0.886395 -2.57583
upperback 0.144732 1.0748 2.02859
thorax -2.91553 0.580517 3.45994
lowerneck -17.179 -6.63378 -15.2188
upperneck -22.2274 -6.36368 12.4367
head -3.10567 -2.86142 6.3568
rclavicle 2.66868e-014 2.38542e-015
rhumerus 51.2064 -12.2772 -26.2869
rradius 58.4991
rwrist 0.565795
rhand -37.509 0.517679
rfingers 7.12502
rthumb -10.5657 -29.1967
lclavicle 2.66868e-014 2.38542e-015
lhumerus 70.7794 21.3861 29.1744
lradius 35.7617
lwrist -10.1776
lhand -17.7315 23.3526
lfingers 7.12502
lthumb 8.52942 53.1603
rfemur -21.0588 6.8589 6.84766
rtibia 38.5337
rfoot -14.8897 0.938522
rtoes -3.493
lfemur -7.81915 -11.2006 -11.2863
ltibia 31.5389
lfoot -15.9266 0.465875
ltoes -27.5672
417
root 0.222543 17.383 4.59457 -5.53446 -68.7359 7.22476
lowerback 5.3279 0.898432 -2.94276
upperback 0.101294 1.0716 2.13674
thorax -2.9806 0.586852 3.78005
lowerneck -17.1591 -6.64415 -15.1725
upperneck -22.2829 -6.4038 12.2501
head -3.13502 -2.87733 6.28889
rclavicle -4.5969e-014 -1.03368e-014
rhumerus 51.4996 -12.5055 -26.8018
rradius 59.2514
rwrist 0.239065
rhand -37.8819 -0.0581378
rfingers 7.12502
rthumb -10.9254 -29.7539
lclavicle -4.5969e-014 -1.03368e-014
lhumerus 70.9213 21.7294 29.5201
lradius 35.9905
lwrist -9.73643
lhand -17.4257 23.4865
lfingers 7.12502
lthumb 8.82459 53.282
rfemur -20.5511 6.62428 6.84776
rtibia 38.0312
rfoot -14.7925 1.29029
rtoes -2.29326
lfemur -8.16344 -11.5188 -11.1413
ltibia 31.9648
lfoot -15.1349 -0.239405
ltoes -26.138
418
root 0.1981 17.4054 4.52985 -5.74842 -68.2666 7.37958
lowerback 5.37886 0.809149 -3.04882
upperback 0.0342269 0.944511 2.09694
thorax -3.06848 0.527877 3.80837
lowerneck -17.151 -6.63421 -15.1331
upperneck -22.246 -6.37273 12.3993
head -3.11798 -2.86699 6.33085
rclavicle 7.20594e-014 7.15625e-015
rhumerus 51.728 -12.6278 -27.4964
rradius 60.0311
rwrist -0.118517
rhand -38.3416 -0.334118
rfingers 7.12502
rthumb -11.3688 -30.0059
lclavicle 7.20594e-014 7.15625e-015
lhumerus 70.9599 22.1181 29.3264
lradius 36.1167
lwrist -9.44801
lhand -17.7597 22.7906
lfingers 7.12502
lthumb 8.50226 52.5994
rfemur -19.9744 6.33558 6.96315
rtibia 37.4633
rfoot -14.6977 1.44787
rtoes -2.3217
lfemur -8.55902 -11.5837 -10.9337
ltibia 32.4462
lfoot -14.2854 -0.845928
ltoes -26.2846
419
root 0.172485 17.4286 4.46684 -6.05125 -67.7744 7.73755
lowerback 5.31554 0.691528 -3.31269
upperback -0.0471995 0.774085 2.10867
thorax -3.10594 0.44963 3.98439
lowerneck -17.2617 -6.63713 -15.2529
upperneck -22.1882 -6.31757 12.6037
head -3.07507 -2.83345 6.41554
rclavicle -5.97348e-014 -2.94201e-014
rhumerus 52.1458 -12.7473 -28.2258
rradius 60.6193
rwrist -0.426796
rhand -38.4409 0.253142
rfingers 7.12502
rthumb -11.4645 -29.4134
lclavicle -5.97348e-014 -2.94201e-014
lhumerus 70.9142 22.5957 29.1224
lradius 36.212
lwrist -8.96447
lhand -18.6203 21.3772
lfingers 7.12502
lthumb 7.67169 51.218
rfemur -19.5187 6.08456 7.00392
rtibia 36.8879
rfoot -14.6623 1.34986
rtoes -3.4988
lfemur -9.0796 -11.4804 -10.8633
ltibia 32.985
lfoot -13.2896 -1.16787
ltoes -26.4737
420
root 0.145865 17.4607 4.40689 -6.13205 -67.2771 7.9239
lowerback 5.14265 0.535669 -3.46557
upperback -0.108926 0.563008 2.14135
thorax -3.05478 0.34732 4.12277
lowerneck -17.3508 -6.51576 -15.0771
upperneck -22.2542 -6.18777 12.4653
head -3.11381 -2.77698 6.35033
rclavicle 2.41026e-014 -2.46493e-014
rhumerus 52.652 -12.8283 -28.9852
rradius 61.1525
rwrist -0.363439
rhand -38.4612 0.74832
rfingers 7.12502
rthumb -11.4841 -28.9171
lclavicle 2.41026e-014 -2.46493e-014
lhumerus 70.9032 23.1392 28.992
lradius 36.2415
lwrist -8.5704
lhand -19.4591 20.2259
lfingers 7.12502
lthumb 6.86194 50.0947
rfemur -19.1219 6.01234 7.06151
rtibia 36.3032
rfoot -14.5846 1.26546
rtoes -3.15943
lfemur -9.69575 -11.3374 -10.7448
ltibia 33.553
lfoot -12.2144 -1.507
ltoes -25.4216
